<?xml version="1.0" encoding="UTF-8"?>
<svg version="1.1" xmlns="http://www.w3.org/2000/svg" width="337" height="337">
<path d="M0 0 C111.21 0 222.42 0 337 0 C337 111.21 337 222.42 337 337 C225.79 337 114.58 337 0 337 C0 225.79 0 114.58 0 0 Z " fill="#0F375D" transform="translate(0,0)"/>
<path d="M0 0 C0.55171875 0.48339844 1.1034375 0.96679688 1.671875 1.46484375 C1.671875 2.12484375 1.671875 2.78484375 1.671875 3.46484375 C2.661875 3.79484375 3.651875 4.12484375 4.671875 4.46484375 C6.0234375 6.20703125 6.0234375 6.20703125 7.296875 8.33984375 C7.72226563 9.03851563 8.14765625 9.7371875 8.5859375 10.45703125 C11.46673647 15.78340057 11.38785952 21.56575393 10.671875 27.46484375 C9.04985591 30.69677732 6.94847715 32.82654267 3.671875 34.46484375 C-0.37954619 34.7234451 -1.87150169 34.76925929 -5.328125 32.46484375 C-5.48046875 29.234375 -5.48046875 29.234375 -5.265625 25.27734375 C-5.09521405 19.09427862 -5.24495449 15.28089102 -9.328125 10.46484375 C-16.81013958 3.28052205 -26.34053138 1.9670945 -36.35302734 2.04321289 C-44.96706506 2.35238766 -52.56376416 4.77231816 -58.89453125 10.75390625 C-65.44485906 18.57146369 -66.12665751 27.62736683 -65.328125 37.46484375 C-63.82360841 43.99804349 -61.74869647 49.27622034 -56.328125 53.46484375 C-55.77511719 53.8928125 -55.22210938 54.32078125 -54.65234375 54.76171875 C-45.64817089 61.10005989 -35.14303302 61.79450547 -24.48046875 62.05859375 C-21.328125 62.46484375 -21.328125 62.46484375 -19.41796875 63.8046875 C-17.71205942 66.4032949 -17.94327242 68.45016521 -18.328125 71.46484375 C-21.38697193 73.50407504 -22.29826747 73.74471126 -25.79296875 73.95703125 C-26.66977295 74.01987305 -27.54657715 74.08271484 -28.44995117 74.14746094 C-29.37912354 74.21094727 -30.3082959 74.27443359 -31.265625 74.33984375 C-45.6143897 75.53344271 -59.31626325 79.00327336 -69.07421875 90.36328125 C-73.08748005 97.0895572 -73.85343443 103.16032155 -73.765625 110.83984375 C-73.75732666 111.77014404 -73.74902832 112.70044434 -73.74047852 113.65893555 C-73.57773964 120.25014972 -73.01948445 125.83414322 -69.328125 131.46484375 C-68.63396484 132.53025391 -68.63396484 132.53025391 -67.92578125 133.6171875 C-61.52164031 142.02555836 -51.50623175 145.87105315 -41.328125 147.46484375 C-22.83828432 149.11140037 -7.61395049 146.36449767 7.10546875 134.50390625 C18.9458496 123.76170575 23.69340207 108.01918931 24.671875 92.46484375 C27.046875 91.83984375 27.046875 91.83984375 29.671875 91.46484375 C31.671875 93.46484375 31.671875 93.46484375 31.9375 95.609375 C31.82945097 114.05874684 27.2162901 128.84888803 14.671875 142.46484375 C8.4442538 148.53579523 1.7513013 152.36754663 -6.328125 155.46484375 C-7.22144531 155.85800781 -8.11476563 156.25117188 -9.03515625 156.65625 C-26.23846787 163.2658222 -47.22331345 160.61166408 -63.98828125 154.02734375 C-77.40990587 147.95183141 -86.90361301 139.35845549 -92.328125 125.46484375 C-93.86700512 120.8482034 -93.55383826 116.23844185 -93.578125 111.40234375 C-93.59875 110.40267578 -93.619375 109.40300781 -93.640625 108.37304688 C-93.70015157 96.92162202 -90.85884421 88.18780108 -83.328125 79.46484375 C-77.71939626 74.14169183 -70.57753012 69.76304762 -62.765625 69.21484375 C-61.96125 69.29734375 -61.156875 69.37984375 -60.328125 69.46484375 C-60.658125 68.80484375 -60.988125 68.14484375 -61.328125 67.46484375 C-63.060625 66.90796875 -63.060625 66.90796875 -64.828125 66.33984375 C-74.10805089 62.96381336 -79.10766459 56.03769695 -83.234375 47.39453125 C-86.66539726 38.20429305 -87.10745192 24.58994485 -83.3671875 15.4140625 C-77.03874204 3.54227948 -66.911348 -3.21757999 -54.328125 -7.34765625 C-37.60750667 -11.4983316 -14.38865418 -9.48782063 0 0 Z " fill="#F99E4A" transform="translate(199.328125,92.53515625)"/>
</svg>
